<?xml version="1.0" encoding="UTF-8" standalone="no"?>
<svg
   version="1.1"
   x="0px"
   y="0px"
   viewBox="0 0 101 66.368492"
   enable-background="new 0 0 100 100"
   xml:space="preserve"
   id="svg17"
   sodipodi:docname="xbox-controller-dark-mode.svg"
   width="101"
   height="66.368492"
   inkscape:version="1.3 (0e150ed6c4, 2023-07-21)"
   inkscape:export-filename="xbox-controller.png"
   inkscape:export-xdpi="760.39606"
   inkscape:export-ydpi="760.39606"
   xmlns:inkscape="http://www.inkscape.org/namespaces/inkscape"
   xmlns:sodipodi="http://sodipodi.sourceforge.net/DTD/sodipodi-0.dtd"
   xmlns="http://www.w3.org/2000/svg"
   xmlns:svg="http://www.w3.org/2000/svg"
   xmlns:rdf="http://www.w3.org/1999/02/22-rdf-syntax-ns#"
   xmlns:cc="http://creativecommons.org/ns#"
   xmlns:dc="http://purl.org/dc/elements/1.1/"><title
     id="title17">Xbox Controller</title><defs
     id="defs17" /><sodipodi:namedview
     id="namedview17"
     pagecolor="#474747"
     bordercolor="#000000"
     borderopacity="0.25"
     inkscape:showpageshadow="2"
     inkscape:pageopacity="0.0"
     inkscape:pagecheckerboard="false"
     inkscape:deskcolor="#d1d1d1"
     showguides="true"
     inkscape:zoom="8"
     inkscape:cx="34"
     inkscape:cy="27.9375"
     inkscape:window-width="1920"
     inkscape:window-height="1017"
     inkscape:window-x="-8"
     inkscape:window-y="356"
     inkscape:window-maximized="1"
     inkscape:current-layer="svg17"><sodipodi:guide
       position="36.385669,123.12823"
       orientation="0,-1"
       id="guide17"
       inkscape:locked="false" /></sodipodi:namedview><metadata
     id="metadata17"><rdf:RDF><cc:Work
         rdf:about=""><dc:title>Xbox Controller</dc:title><dc:date>10/27/2023</dc:date><dc:creator><cc:Agent><dc:title>Christopher Whitley (@AristurtleDev)</dc:title></cc:Agent></dc:creator><dc:subject><rdf:Bag><rdf:li>xbox</rdf:li><rdf:li>controller</rdf:li></rdf:Bag></dc:subject><dc:description>An image of an xbox controller</dc:description><cc:license
           rdf:resource="http://creativecommons.org/publicdomain/zero/1.0/" /></cc:Work><cc:License
         rdf:about="http://creativecommons.org/publicdomain/zero/1.0/"><cc:permits
           rdf:resource="http://creativecommons.org/ns#Reproduction" /><cc:permits
           rdf:resource="http://creativecommons.org/ns#Distribution" /><cc:permits
           rdf:resource="http://creativecommons.org/ns#DerivativeWorks" /></cc:License></rdf:RDF></metadata><path
     d="m 68.70757,37.801233 -0.540582,-0.672997 c 0.07491,-0.157412 0.14135,-0.315224 0.199951,-0.474565 l 0.611198,0.598462 c -0.08091,0.185397 -0.172473,0.369133 -0.270569,0.549099 z m 0.320787,-0.678838 -0.611198,-0.598463 c 0.05598,-0.162349 0.103052,-0.326852 0.14338,-0.492251 l 0.673962,0.514901 c -0.05827,0.193972 -0.128295,0.385654 -0.206142,0.575814 z M 69.27124,36.41505 68.590955,35.893504 c 0.03532,-0.166794 0.06564,-0.334975 0.08639,-0.504188 l 0.731272,0.428205 c -0.03543,0.199661 -0.08107,0.399426 -0.137377,0.597531 z m 0.163031,-0.732482 -0.743688,-0.436874 c 0.01619,-0.168856 0.02499,-0.337482 0.02705,-0.507007 l 0.781857,0.340589 c -0.01282,0.200747 -0.03304,0.401717 -0.0652,0.603275 z m 0.07781,-0.738258 -0.79448,-0.346387 c -0.0025,-0.169163 -0.01414,-0.337607 -0.03207,-0.505196 l 0.82393,0.245084 c 0.01043,0.200696 0.01109,0.403235 0.0026,0.606496 z m -0.01525,-0.745561 -0.825668,-0.244591 c -0.02294,-0.16898 -0.05238,-0.334231 -0.09095,-0.49876 l 0.843164,0.143878 c 0.0339,0.197771 0.05802,0.397386 0.07346,0.599473 z m -0.100628,-0.73346 -0.844252,-0.144508 c -0.0414,-0.164664 -0.08995,-0.324475 -0.144809,-0.483432 l 0.848267,0.042 c 0.05583,0.192465 0.102333,0.388527 0.140794,0.585938 z m -0.181862,-0.71597 -0.861958,-0.04092 c -0.06072,-0.156351 -0.127292,-0.310094 -0.201465,-0.460737 l 0.85446,-0.05925 c 0.07863,0.183164 0.148566,0.368799 0.208963,0.560905 z m -0.259367,-0.687341 -0.869886,0.06082 c -0.07677,-0.146154 -0.160043,-0.288571 -0.251565,-0.426767 l 0.851733,-0.16265 c 0.09815,0.171976 0.189796,0.347678 0.269718,0.528594 z m -0.33791,-0.644337 -0.858033,0.163506 c -0.095,-0.13721 -0.196061,-0.268933 -0.303634,-0.39693 L 68.284418,30.9201 c 0.119415,0.160292 0.231025,0.326556 0.332652,0.497541 z m -0.418631,-0.602589 -0.829457,0.262366 c -0.110169,-0.1235 -0.227489,-0.242158 -0.349586,-0.357571 l 0.787629,-0.358395 c 0.13915,0.146226 0.269404,0.297802 0.391414,0.4536 z m -0.486264,-0.545798 -0.79393,0.359248 c -0.12316,-0.108542 -0.250004,-0.213217 -0.384206,-0.310179 l 0.740611,-0.445432 c 0.152559,0.125516 0.299489,0.258266 0.437525,0.396363 z m -0.540829,-0.481462 -0.752542,0.453524 c -0.113497,-0.0775 -0.227429,-0.156768 -0.349378,-0.227175 -0.02613,-0.01509 -0.05312,-0.02617 -0.07991,-0.04013 l 0.677059,-0.539034 c 0.175757,0.11048 0.343077,0.228028 0.504764,0.352821 z m -0.696008,-0.476711 c 0.02831,0.01635 0.05293,0.03656 0.08124,0.05291 l -0.689635,0.548245 c -0.146537,-0.0756 -0.295211,-0.144978 -0.444956,-0.207474 l 0.627707,-0.609457 c 0.144328,0.06685 0.286267,0.135323 0.425637,0.215789 z M 65.933873,29.0344 65.294028,29.654819 c -0.156252,-0.05877 -0.314221,-0.109535 -0.472163,-0.152805 l 0.558133,-0.68257 c 0.186691,0.06137 0.371464,0.133601 0.553875,0.214956 z m -1.257642,-0.404142 c 0.193361,0.03976 0.385447,0.08926 0.575615,0.149639 l -0.561815,0.686435 c -0.162272,-0.03829 -0.326701,-0.07032 -0.490662,-0.0931 z m -0.132874,-0.02131 -0.477953,0.742339 c -0.166997,-0.02004 -0.334616,-0.03146 -0.502212,-0.03538 l 0.386309,-0.784767 c 0.198498,0.01577 0.395726,0.04129 0.593857,0.07781 z m -0.728861,-0.08537 -0.389109,0.792137 c -0.16736,7.04e-4 -0.335791,0.0083 -0.501369,0.02351 l 0.292507,-0.820954 c 0.199723,-0.009 0.398614,-0.0065 0.597969,0.0053 z m -0.730979,-0.0012 -0.29811,0.83569 c -0.165346,0.01985 -0.329577,0.04782 -0.493784,0.08329 l 0.19785,-0.853142 c 0.196824,-0.03162 0.395202,-0.05336 0.594044,-0.06584 z m -0.724619,0.0833 -0.202806,0.866753 c -0.163975,0.0401 -0.3251,0.08784 -0.484904,0.140833 l 0.09998,-0.872212 c 0.193924,-0.05426 0.3907,-0.10088 0.587731,-0.135374 z m -0.71953,0.17758 -0.100187,0.875087 c -0.158482,0.05825 -0.313025,0.124761 -0.467544,0.198775 l 6.5e-4,-0.871158 c 0.186462,-0.07654 0.375126,-0.144313 0.567081,-0.202704 z m -0.691443,0.259688 -2.08e-4,0.872909 c -0.149514,0.07541 -0.297917,0.158941 -0.44173,0.249617 l -0.10037,-0.854607 c 0.177263,-0.09832 0.357375,-0.189003 0.542308,-0.267919 z m -0.66164,0.333795 0.102154,0.869116 c -0.140551,0.09256 -0.278244,0.19276 -0.410706,0.298977 L 59.776347,29.70673 c 0.166762,-0.11786 0.336382,-0.228079 0.509938,-0.330037 z m -0.620536,0.408444 0.20491,0.852069 c -0.129839,0.109228 -0.253361,0.225097 -0.37382,0.345729 L 59.198166,30.17257 c 0.149971,-0.136538 0.30691,-0.267556 0.467583,-0.387433 z m -0.569446,0.478371 0.303493,0.822133 c -0.116756,0.124267 -0.228271,0.254557 -0.335201,0.391985 l -0.394614,-0.769917 c 0.135552,-0.156843 0.278971,-0.304652 0.426318,-0.444203 z m -0.512914,0.551443 0.394615,0.769917 c -0.100629,0.136574 -0.194285,0.278672 -0.284882,0.425531 l -0.47941,-0.711057 c 0.117694,-0.168651 0.240423,-0.328405 0.369674,-0.484393 z m -0.654715,0.927807 c 0.06614,-0.114557 0.139481,-0.218967 0.210862,-0.327502 l 0.478321,0.710426 -0.0065,0.01123 c -0.08494,0.147127 -0.160527,0.298161 -0.231114,0.450582 L 57.82694,31.941589 c 0.0348,-0.06527 0.06413,-0.133689 0.101735,-0.19883 z m -0.16502,0.321025 0.559201,0.650802 c -0.06926,0.157681 -0.131783,0.316255 -0.184731,0.475864 L 57.513541,32.6202 c 0.07373,-0.188044 0.15746,-0.373309 0.250108,-0.55642 z m -0.300129,0.683278 0.633966,0.581658 c -0.04989,0.164371 -0.09304,0.329636 -0.12772,0.495302 L 57.277187,33.33132 c 0.05218,-0.195994 0.11458,-0.392076 0.186335,-0.584255 z m -0.224165,0.715157 0.705,0.50137 c -0.03032,0.168181 -0.05325,0.336139 -0.0677,0.504499 l -0.753164,-0.407889 c 0.03043,-0.201063 0.06804,-0.399478 0.115866,-0.597985 z m -0.13477,0.733824 0.759697,0.41166 c -0.0101,0.170872 -0.01433,0.339141 -0.0103,0.510686 L 57.057009,34.80655 c 0.0063,-0.204516 0.02215,-0.408003 0.04758,-0.610458 z m -0.04561,0.747865 0.797417,0.313636 c 0.0088,0.168309 0.025,0.336393 0.04924,0.503127 l -0.822745,-0.21445 c -0.01847,-0.199347 -0.02608,-0.399909 -0.02391,-0.602313 z m 0.03718,0.740256 0.831224,0.214853 c 0.02815,0.167499 0.06281,0.331266 0.105944,0.495435 l -0.843067,-0.113872 c -0.04194,-0.196422 -0.07236,-0.395182 -0.0941,-0.596414 z m 0.119738,0.728021 0.857638,0.116295 c 0.04726,0.162058 0.101025,0.320386 0.16283,0.477364 L 57.376453,36.99156 C 57.31411,36.802823 57.260662,36.60874 57.2159,36.412184 Z m 0.199443,0.70815 0.873164,0.01145 c 0.06484,0.154239 0.137276,0.305376 0.216221,0.452783 l -0.863048,0.09173 c -0.08428,-0.183432 -0.158783,-0.368707 -0.226337,-0.55596 z m 0.288667,0.674308 0.865667,-0.08872 c 0.08263,0.143545 0.172204,0.28511 0.269378,0.423574 l -0.842949,0.190184 c -0.10619,-0.170625 -0.202397,-0.345968 -0.292096,-0.525041 z m 0.366587,0.639928 0.844895,-0.193553 c 0.09868,0.133344 0.202778,0.262329 0.314033,0.386462 l -0.810896,0.288055 C 58.29553,38.759107 58.178941,38.598951 58.070597,38.43457 Z m 0.433571,0.58426 0.824355,-0.293763 c 0.113847,0.119643 0.233768,0.233797 0.359104,0.3436 l -0.778196,0.384804 c -0.1426,-0.137782 -0.277832,-0.283249 -0.405261,-0.434689 z m 0.498816,0.529085 0.790566,-0.39114 c 0.127932,0.105305 0.25975,0.203881 0.399819,0.298225 l -0.734424,0.477462 c -0.15842,-0.122906 -0.311418,-0.250176 -0.455962,-0.384545 z m 1.052396,0.787299 C 59.883994,40.234763 59.718671,40.12884 59.561367,40.01406 l 0.746793,-0.483798 c 0.06621,0.04123 0.127002,0.0868 0.194509,0.125776 0.07731,0.04463 0.155898,0.0795 0.234701,0.119027 z m 0.117805,0.06501 0.685672,-0.564011 c 0.151299,0.07238 0.303223,0.136129 0.457947,0.192515 l -0.613712,0.635507 c -0.180439,-0.07723 -0.356576,-0.166932 -0.529906,-0.264014 z m 1.219739,0.512538 c -0.189937,-0.05575 -0.3773,-0.123494 -0.562953,-0.199232 l 0.613713,-0.635506 c 0.158847,0.05427 0.320705,0.0983 0.482978,0.136587 z m 0.709114,0.162324 c -0.193334,-0.03226 -0.387578,-0.07552 -0.578368,-0.127269 l 0.535683,-0.701522 c 0.163128,0.03429 0.327324,0.0617 0.491054,0.07985 z m 0.131139,0.0218 0.455501,-0.761291 c 0.16697,0.01255 0.333712,0.02046 0.500635,0.018 L 62.829138,41.1535 c -0.199565,-0.0089 -0.397854,-0.02754 -0.595963,-0.05656 z m 0.728581,0.06574 0.366862,-0.813965 c 0.257102,-0.01029 0.513946,-0.03272 0.76854,-0.0789 l -0.224192,0.840929 c -0.302869,0.03928 -0.390692,0.07056 -0.694669,0.05968 z m 1.043967,-0.06814 0.228498,-0.853418 c 0.164647,-0.03372 0.327093,-0.07621 0.488217,-0.123943 l -0.126527,0.862885 c -0.195686,0.04725 -0.391837,0.08525 -0.59019,0.114487 z m 0.720068,-0.145823 0.129951,-0.878866 c 0.160453,-0.05412 0.317846,-0.112993 0.472597,-0.18238 l -0.02933,0.875566 c -0.187784,0.07128 -0.379947,0.132545 -0.573223,0.18568 z m 0.699577,-0.231029 0.02951,-0.885943 c 0.151482,-0.07127 0.301855,-0.150676 0.446991,-0.236098 l 0.07304,0.871772 c -0.178583,0.09306 -0.362635,0.175484 -0.549538,0.250269 z m 0.671257,-0.317763 -0.07239,-0.872894 c 0.14361,-0.0878 0.28501,-0.184363 0.421826,-0.288065 l 0.171853,0.846462 c -0.169387,0.114846 -0.342498,0.218557 -0.52129,0.314497 z m 0.635363,-0.393892 -0.173175,-0.851717 c 0.132898,-0.104467 0.262304,-0.215442 0.38603,-0.334188 l 0.269555,0.813021 c -0.156501,0.132768 -0.316941,0.257272 -0.48241,0.372884 z m 0.585154,-0.460318 -0.274167,-0.827664 c 0.119816,-0.119507 0.23612,-0.245533 0.34611,-0.3782 l 0.36508,0.778324 c -0.139054,0.150329 -0.285525,0.293381 -0.437023,0.42754 z m 0.530824,-0.524629 -0.370989,-0.79072 c 0.105419,-0.132312 0.205614,-0.270634 0.300558,-0.414982 l 0.4547,0.731243 c -0.121401,0.165013 -0.248036,0.32401 -0.384268,0.474471 z m 0.467158,-0.585346 -0.461021,-0.737878 c 0.03524,-0.05603 0.07356,-0.107281 0.105328,-0.162313 0.05382,-0.09322 0.09698,-0.188097 0.145148,-0.281584 l 0.538843,0.673492 -0.0013,0.0023 c -0.102928,0.175678 -0.212546,0.343002 -0.326998,0.506038 z"
     id="path9-7-5-2"
     style="fill:none;stroke:#ffffff;stroke-width:0.077;stroke-dasharray:none;stroke-opacity:1"
     sodipodi:nodetypes="ccccscccccscccccscccccccccccsccccccccccccccccccccccccccccccccccccccscccccccccccccccccccccccccscccccscccccccccccccccccccccccccccccccccccscccccscsccsccssccccscccccscccccccccccsccccccccccsccccccccccccccccccccccccccccccsccccsccccccsccccccccccccccccccccsccccccccccccccccccccccccccccccccccccccccsccccc" /><path
     d="m 72.891,34.834607 c 0,-5.296 -4.31,-9.605 -9.605,-9.605 -5.295,0 -9.605,4.309 -9.605,9.605 0,5.297 4.309,9.605 9.605,9.605 5.296,0 9.605,-4.308 9.605,-9.605 z"
     id="path10-7"
     sodipodi:nodetypes="sssss"
     style="fill:none;stroke:#ffffff;stroke-opacity:1;stroke-width:0.5;stroke-dasharray:none" /><path
     d="m 58.544191,34.834607 c 0,-2.694864 2.127307,-4.89044 4.74118,-4.89044 2.613873,0 4.742438,2.194279 4.742438,4.89044 0,2.697458 -2.127308,4.89044 -4.742438,4.89044 -2.61513,0 -4.74118,-2.192982 -4.74118,-4.89044 z"
     style="fill:none;stroke:#ffffff;stroke-width:0.5;stroke-dasharray:none;stroke-opacity:1"
     id="path1-9-4" /><path
     d="m 63.286,41.889498 c 3.771823,0 6.839572,-3.164326 6.839572,-7.054891 0,-3.890565 -3.067749,-7.054891 -6.839572,-7.054891 -3.771823,0 -6.839572,3.164326 -6.839572,7.054891 0,3.890565 3.067749,7.054891 6.839572,7.054891 z"
     style="fill:none;stroke:#ffffff;stroke-width:0.5;stroke-dasharray:none;stroke-opacity:1"
     id="path1-98-1" /><path
     d="m 37.786,26.202107 c -4.927,0 -8.934,4.008 -8.934,8.935 0,4.927 4.007,8.934 8.934,8.934 4.926,0 8.934,-4.007 8.934,-8.934 0,-4.927 -4.008,-8.935 -8.934,-8.935 z"
     id="path4"
     sodipodi:nodetypes="sssss"
     style="fill:none;stroke:#ffffff;stroke-opacity:1;stroke-width:0.5;stroke-dasharray:none" /><path
     d="m 44.50033,21.040395 c 0.950382,0 1.724134,-0.773751 1.724134,-1.724793 0,-0.950383 -0.773752,-1.724793 -1.724134,-1.724793 -0.950383,0 -1.724794,0.77441 -1.724794,1.724793 0,0.951042 0.774411,1.724793 1.724794,1.724793 z"
     id="path6"
     sodipodi:nodetypes="sssss"
     style="fill:none;stroke:#ffffff;stroke-width:0.5;stroke-opacity:1;stroke-dasharray:none" /><path
     d="m 50.5,14.852704 c 2.00008,0 3.625725,-1.62636 3.625725,-3.62644 0,-2.0000788 -1.625645,-3.6271538 -3.625725,-3.6271538 -1.999365,0 -3.625725,1.627075 -3.625725,3.6271538 0,2.00008 1.62636,3.62644 3.625725,3.62644 z"
     id="path11"
     sodipodi:nodetypes="sssss"
     style="fill:none;stroke:#ffffff;stroke-width:0.5;stroke-dasharray:none;stroke-opacity:1" /><path
     d="m 69.26,22.610107 c 2.066,0 3.748,-1.682 3.748,-3.748 0,-2.067 -1.682,-3.749 -3.748,-3.749 -2.066,0 -3.748,1.682 -3.748,3.749 0,2.066 1.681,3.748 3.748,3.748 z"
     id="path13"
     sodipodi:nodetypes="sssss"
     style="fill:none;stroke:#ffffff;stroke-opacity:1;stroke-width:0.5;stroke-dasharray:none" /><path
     d="m 82.687,15.113107 c -2.066,0 -3.747,1.682 -3.747,3.749 0,2.066 1.681,3.748 3.747,3.748 2.067,0 3.748,-1.682 3.748,-3.748 0,-2.068 -1.681,-3.749 -3.748,-3.749 z"
     id="path14"
     sodipodi:nodetypes="sssss"
     style="fill:none;stroke:#ffffff;stroke-opacity:1;stroke-width:0.5;stroke-dasharray:none" /><path
     d="m 75.973,16.118107 c 2.067,0 3.749,-1.681 3.749,-3.748 0,-2.067 -1.682,-3.7479998 -3.749,-3.7479998 -2.066,0 -3.747,1.6809998 -3.747,3.7479998 0,2.066 1.68,3.748 3.747,3.748 z"
     id="path15"
     sodipodi:nodetypes="sssss"
     style="fill:none;fill-opacity:1;stroke:#ffffff;stroke-opacity:1;stroke-width:0.5;stroke-dasharray:none" /><path
     d="m 75.973,21.605107 c -2.066,0 -3.747,1.681 -3.747,3.747 0,2.067 1.681,3.748 3.747,3.748 2.067,0 3.749,-1.681 3.749,-3.748 0,-2.066 -1.682,-3.747 -3.749,-3.747 z"
     id="path16"
     sodipodi:nodetypes="sssss"
     style="fill:none;stroke:#ffffff;stroke-opacity:1;stroke-width:0.5;stroke-dasharray:none" /><text
     xml:space="preserve"
     style="font-size:4.79495px;fill:#ffffff;fill-opacity:1;stroke:none;stroke-width:0.5;stroke-opacity:1;stroke-dasharray:none"
     x="80.90461"
     y="20.604694"
     id="text18"><tspan
       sodipodi:role="line"
       id="tspan18"
       x="80.90461"
       y="20.604694"
       style="stroke:none;stroke-width:0.5;stroke-opacity:1;fill:#ffffff;fill-opacity:1;stroke-dasharray:none">B</tspan></text><text
     xml:space="preserve"
     style="font-size:4.41806px;fill:#ffffff;fill-opacity:1;stroke:none;stroke-width:0.5;stroke-opacity:1;stroke-dasharray:none"
     x="67.745605"
     y="20.46769"
     id="text19"><tspan
       sodipodi:role="line"
       id="tspan19"
       x="67.745605"
       y="20.46769"
       style="fill:#ffffff;fill-opacity:1;stroke:none;stroke-width:0.5;stroke-opacity:1;stroke-dasharray:none">X</tspan></text><text
     xml:space="preserve"
     style="font-size:5.05664px;fill:#ffffff;fill-opacity:1;stroke:none;stroke-width:0.5;stroke-opacity:1;stroke-dasharray:none"
     x="74.418495"
     y="14.208324"
     id="text20"><tspan
       sodipodi:role="line"
       id="tspan20"
       x="74.418495"
       y="14.208324"
       style="stroke:none;stroke-width:0.5;stroke-opacity:1;fill:#ffffff;fill-opacity:1;stroke-dasharray:none">Y</tspan></text><path
     d="m 56.50033,21.040395 c 0.950382,0 1.724134,-0.773751 1.724134,-1.724793 0,-0.950383 -0.773752,-1.724793 -1.724134,-1.724793 -0.950383,0 -1.724794,0.77441 -1.724794,1.724793 0,0.951042 0.774411,1.724793 1.724794,1.724793 z"
     id="path6-7"
     sodipodi:nodetypes="sssss"
     style="fill:none;stroke:#ffffff;stroke-width:0.5;stroke-opacity:1;stroke-dasharray:none" /><path
     d="m 50.50033,25.382229 c 0.950382,0 1.724134,-0.773751 1.724134,-1.724793 0,-0.950383 -0.773752,-1.724793 -1.724134,-1.724793 -0.950383,0 -1.724794,0.77441 -1.724794,1.724793 0,0.951042 0.774411,1.724793 1.724794,1.724793 z"
     id="path6-7-7"
     sodipodi:nodetypes="sssss"
     style="fill:none;stroke:#ffffff;stroke-width:0.5;stroke-opacity:1;stroke-dasharray:none" /><path
     d="m 30.82857,22.738733 -0.540582,-0.672997 c 0.07491,-0.157412 0.14135,-0.315224 0.199951,-0.474565 l 0.611198,0.598462 c -0.08091,0.185397 -0.172473,0.369133 -0.270569,0.549099 z m 0.320787,-0.678838 -0.611198,-0.598463 c 0.05598,-0.162349 0.103052,-0.326852 0.14338,-0.492251 l 0.673962,0.514901 c -0.05827,0.193972 -0.128295,0.385654 -0.206142,0.575814 z M 31.39224,21.35255 30.711955,20.831004 c 0.03532,-0.166794 0.06564,-0.334975 0.08639,-0.504188 l 0.731272,0.428205 c -0.03543,0.199661 -0.08107,0.399426 -0.137377,0.597531 z m 0.163031,-0.732482 -0.743688,-0.436874 c 0.01619,-0.168856 0.02499,-0.337482 0.02705,-0.507007 l 0.781857,0.340589 c -0.01282,0.200747 -0.03304,0.401717 -0.0652,0.603275 z m 0.07781,-0.738258 -0.79448,-0.346387 c -0.0025,-0.169163 -0.01414,-0.337607 -0.03207,-0.505196 l 0.82393,0.245084 c 0.01043,0.200696 0.01109,0.403235 0.0026,0.606496 z m -0.01525,-0.745561 -0.825668,-0.244591 c -0.02294,-0.16898 -0.05238,-0.334231 -0.09095,-0.49876 l 0.843164,0.143878 c 0.0339,0.197771 0.05802,0.397386 0.07346,0.599473 z m -0.100628,-0.73346 -0.844252,-0.144508 c -0.0414,-0.164664 -0.08995,-0.324475 -0.144809,-0.483432 l 0.848267,0.042 c 0.05583,0.192465 0.102333,0.388527 0.140794,0.585938 z m -0.181862,-0.71597 -0.861958,-0.04092 c -0.06072,-0.156351 -0.127292,-0.310094 -0.201465,-0.460737 l 0.85446,-0.05925 c 0.07863,0.183164 0.148566,0.368799 0.208963,0.560905 z m -0.259367,-0.687341 -0.869886,0.06082 c -0.07677,-0.146154 -0.160043,-0.288571 -0.251565,-0.426767 l 0.851733,-0.16265 c 0.09815,0.171976 0.189796,0.347678 0.269718,0.528594 z m -0.33791,-0.644337 -0.858033,0.163506 c -0.095,-0.13721 -0.196061,-0.268933 -0.303634,-0.39693 L 30.405418,15.8576 c 0.119415,0.160292 0.231025,0.326556 0.332652,0.497541 z m -0.418631,-0.602589 -0.829457,0.262366 c -0.110169,-0.1235 -0.227489,-0.242158 -0.349586,-0.357571 l 0.787629,-0.358395 c 0.13915,0.146226 0.269404,0.297802 0.391414,0.4536 z m -0.486264,-0.545798 -0.79393,0.359248 c -0.12316,-0.108542 -0.250004,-0.213217 -0.384206,-0.310179 l 0.740611,-0.445432 c 0.152559,0.125516 0.299489,0.258266 0.437525,0.396363 z m -0.540829,-0.481462 -0.752542,0.453524 c -0.113497,-0.0775 -0.227429,-0.156768 -0.349378,-0.227175 -0.02613,-0.01509 -0.05312,-0.02617 -0.07991,-0.04013 l 0.677059,-0.539034 c 0.175757,0.11048 0.343077,0.228028 0.504764,0.352821 z m -0.696008,-0.476711 c 0.02831,0.01635 0.05293,0.03656 0.08124,0.05291 l -0.689635,0.548245 c -0.146537,-0.0756 -0.295211,-0.144978 -0.444956,-0.207474 l 0.627707,-0.609457 c 0.144328,0.06685 0.286267,0.135323 0.425637,0.215789 z M 28.054873,13.9719 27.415028,14.592319 c -0.156252,-0.05877 -0.314221,-0.109535 -0.472163,-0.152805 l 0.558133,-0.68257 c 0.186691,0.06137 0.371464,0.133601 0.553875,0.214956 z m -1.257642,-0.404142 c 0.193361,0.03976 0.385447,0.08926 0.575615,0.149639 l -0.561815,0.686435 c -0.162272,-0.03829 -0.326701,-0.07032 -0.490662,-0.0931 z m -0.132874,-0.02131 -0.477953,0.742339 c -0.166997,-0.02004 -0.334616,-0.03146 -0.502212,-0.03538 l 0.386309,-0.784767 c 0.198498,0.01577 0.395726,0.04129 0.593857,0.07781 z m -0.728861,-0.08537 -0.389109,0.792137 c -0.16736,7.04e-4 -0.335791,0.0083 -0.501369,0.02351 l 0.292507,-0.820954 c 0.199723,-0.009 0.398614,-0.0065 0.597969,0.0053 z m -0.730979,-0.0012 -0.29811,0.83569 c -0.165346,0.01985 -0.329577,0.04782 -0.493784,0.08329 l 0.19785,-0.853142 c 0.196824,-0.03162 0.395202,-0.05336 0.594044,-0.06584 z m -0.724619,0.0833 -0.202806,0.866753 c -0.163975,0.0401 -0.3251,0.08784 -0.484904,0.140833 l 0.09998,-0.872212 c 0.193924,-0.05426 0.3907,-0.10088 0.587731,-0.135374 z m -0.71953,0.17758 -0.100187,0.875087 c -0.158482,0.05825 -0.313025,0.124761 -0.467544,0.198775 l 6.5e-4,-0.871158 c 0.186462,-0.07654 0.375126,-0.144313 0.567081,-0.202704 z m -0.691443,0.259688 -2.08e-4,0.872909 c -0.149514,0.07541 -0.297917,0.158941 -0.44173,0.249617 l -0.10037,-0.854607 c 0.177263,-0.09832 0.357375,-0.189003 0.542308,-0.267919 z m -0.66164,0.333795 0.102154,0.869116 c -0.140551,0.09256 -0.278244,0.19276 -0.410706,0.298977 L 21.897347,14.64423 c 0.166762,-0.11786 0.336382,-0.228079 0.509938,-0.330037 z m -0.620536,0.408444 0.20491,0.852069 c -0.129839,0.109228 -0.253361,0.225097 -0.37382,0.345729 L 21.319166,15.11007 c 0.149971,-0.136538 0.30691,-0.267556 0.467583,-0.387433 z m -0.569446,0.478371 0.303493,0.822133 c -0.116756,0.124267 -0.228271,0.254557 -0.335201,0.391985 l -0.394614,-0.769917 c 0.135552,-0.156843 0.278971,-0.304652 0.426318,-0.444203 z m -0.512914,0.551443 0.394615,0.769917 c -0.100629,0.136574 -0.194285,0.278672 -0.284882,0.425531 l -0.47941,-0.711057 c 0.117694,-0.168651 0.240423,-0.328405 0.369674,-0.484393 z m -0.654715,0.927807 c 0.06614,-0.114557 0.139481,-0.218967 0.210862,-0.327502 l 0.478321,0.710426 -0.0065,0.01123 c -0.08494,0.147127 -0.160527,0.298161 -0.231114,0.450582 L 19.94794,16.879089 c 0.0348,-0.06527 0.06413,-0.133689 0.101735,-0.19883 z m -0.16502,0.321025 0.559201,0.650802 c -0.06926,0.157681 -0.131783,0.316255 -0.184731,0.475864 L 19.634541,17.5577 c 0.07373,-0.188044 0.15746,-0.373309 0.250108,-0.55642 z m -0.300129,0.683278 0.633966,0.581658 c -0.04989,0.164371 -0.09304,0.329636 -0.12772,0.495302 L 19.398187,18.26882 c 0.05218,-0.195994 0.11458,-0.392076 0.186335,-0.584255 z m -0.224165,0.715157 0.705,0.50137 c -0.03032,0.168181 -0.05325,0.336139 -0.0677,0.504499 l -0.753164,-0.407889 c 0.03043,-0.201063 0.06804,-0.399478 0.115866,-0.597985 z m -0.13477,0.733824 0.759697,0.41166 c -0.0101,0.170872 -0.01433,0.339141 -0.0103,0.510686 L 19.178009,19.74405 c 0.0063,-0.204516 0.02215,-0.408003 0.04758,-0.610458 z m -0.04561,0.747865 0.797417,0.313636 c 0.0088,0.168309 0.025,0.336393 0.04924,0.503127 l -0.822745,-0.21445 c -0.01847,-0.199347 -0.02608,-0.399909 -0.02391,-0.602313 z m 0.03718,0.740256 0.831224,0.214853 c 0.02815,0.167499 0.06281,0.331266 0.105944,0.495435 l -0.843067,-0.113872 c -0.04194,-0.196422 -0.07236,-0.395182 -0.0941,-0.596414 z m 0.119738,0.728021 0.857638,0.116295 c 0.04726,0.162058 0.101025,0.320386 0.16283,0.477364 L 19.497453,21.92906 C 19.43511,21.740323 19.381662,21.54624 19.3369,21.349684 Z m 0.199443,0.70815 0.873164,0.01145 c 0.06484,0.154239 0.137276,0.305376 0.216221,0.452783 l -0.863048,0.09173 c -0.08428,-0.183432 -0.158783,-0.368707 -0.226337,-0.55596 z m 0.288667,0.674308 0.865667,-0.08872 c 0.08263,0.143545 0.172204,0.28511 0.269378,0.423574 l -0.842949,0.190184 c -0.10619,-0.170625 -0.202397,-0.345968 -0.292096,-0.525041 z m 0.366587,0.639928 0.844895,-0.193553 c 0.09868,0.133344 0.202778,0.262329 0.314033,0.386462 l -0.810896,0.288055 C 20.41653,23.696607 20.299941,23.536451 20.191597,23.37207 Z m 0.433571,0.58426 0.824355,-0.293763 c 0.113847,0.119643 0.233768,0.233797 0.359104,0.3436 l -0.778196,0.384804 c -0.1426,-0.137782 -0.277832,-0.283249 -0.405261,-0.434689 z m 0.498816,0.529085 0.790566,-0.39114 c 0.127932,0.105305 0.25975,0.203881 0.399819,0.298225 l -0.734424,0.477462 c -0.15842,-0.122906 -0.311418,-0.250176 -0.455962,-0.384545 z m 1.052396,0.787299 C 22.004994,25.172263 21.839671,25.06634 21.682367,24.95156 l 0.746793,-0.483798 c 0.06621,0.04123 0.127002,0.0868 0.194509,0.125776 0.07731,0.04463 0.155898,0.0795 0.234701,0.119027 z m 0.117805,0.06501 0.685672,-0.564011 c 0.151299,0.07238 0.303223,0.136129 0.457947,0.192515 l -0.613712,0.635507 c -0.180439,-0.07723 -0.356576,-0.166932 -0.529906,-0.264014 z m 1.219739,0.512538 c -0.189937,-0.05575 -0.3773,-0.123494 -0.562953,-0.199232 l 0.613713,-0.635506 c 0.158847,0.05427 0.320705,0.0983 0.482978,0.136587 z m 0.709114,0.162324 c -0.193334,-0.03226 -0.387578,-0.07552 -0.578368,-0.127269 l 0.535683,-0.701522 c 0.163128,0.03429 0.327324,0.0617 0.491054,0.07985 z m 0.131139,0.0218 0.455501,-0.761291 c 0.16697,0.01255 0.333712,0.02046 0.500635,0.018 L 24.950138,26.091 c -0.199565,-0.0089 -0.397854,-0.02754 -0.595963,-0.05656 z m 0.728581,0.06574 0.366862,-0.813965 c 0.257102,-0.01029 0.513946,-0.03272 0.76854,-0.0789 l -0.224192,0.840929 c -0.302869,0.03928 -0.390692,0.07056 -0.694669,0.05968 z m 1.043967,-0.06814 0.228498,-0.853418 c 0.164647,-0.03372 0.327093,-0.07621 0.488217,-0.123943 l -0.126527,0.862885 c -0.195686,0.04725 -0.391837,0.08525 -0.59019,0.114487 z m 0.720068,-0.145823 0.129951,-0.878866 c 0.160453,-0.05412 0.317846,-0.112993 0.472597,-0.18238 l -0.02933,0.875566 c -0.187784,0.07128 -0.379947,0.132545 -0.573223,0.18568 z m 0.699577,-0.231029 0.02951,-0.885943 c 0.151482,-0.07127 0.301855,-0.150676 0.446991,-0.236098 l 0.07304,0.871772 c -0.178583,0.09306 -0.362635,0.175484 -0.549538,0.250269 z m 0.671257,-0.317763 -0.07239,-0.872894 c 0.14361,-0.0878 0.28501,-0.184363 0.421826,-0.288065 l 0.171853,0.846462 c -0.169387,0.114846 -0.342498,0.218557 -0.52129,0.314497 z m 0.635363,-0.393892 -0.173175,-0.851717 c 0.132898,-0.104467 0.262304,-0.215442 0.38603,-0.334188 l 0.269555,0.813021 c -0.156501,0.132768 -0.316941,0.257272 -0.48241,0.372884 z m 0.585154,-0.460318 -0.274167,-0.827664 c 0.119816,-0.119507 0.23612,-0.245533 0.34611,-0.3782 l 0.36508,0.778324 c -0.139054,0.150329 -0.285525,0.293381 -0.437023,0.42754 z m 0.530824,-0.524629 -0.370989,-0.79072 c 0.105419,-0.132312 0.205614,-0.270634 0.300558,-0.414982 l 0.4547,0.731243 c -0.121401,0.165013 -0.248036,0.32401 -0.384268,0.474471 z m 0.467158,-0.585346 -0.461021,-0.737878 c 0.03524,-0.05603 0.07356,-0.107281 0.105328,-0.162313 0.05382,-0.09322 0.09698,-0.188097 0.145148,-0.281584 l 0.538843,0.673492 -0.0013,0.0023 c -0.102928,0.175678 -0.212546,0.343002 -0.326998,0.506038 z"
     id="path9-7-5"
     style="fill:none;stroke:#ffffff;stroke-width:0.077;stroke-dasharray:none;stroke-opacity:1"
     sodipodi:nodetypes="ccccscccccscccccscccccccccccsccccccccccccccccccccccccccccccccccccccscccccccccccccccccccccccccscccccscccccccccccccccccccccccccccccccccccscccccscsccsccssccccscccccscccccccccccsccccccccccsccccccccccccccccccccccccccccccsccccsccccccsccccccccccccccccccccsccccccccccccccccccccccccccccccccccccccccsccccc" /><path
     d="m 35.012,19.772107 c 0,-5.296 -4.31,-9.605 -9.605,-9.605 -5.295,0 -9.605,4.309 -9.605,9.605 0,5.297 4.309,9.605 9.605,9.605 5.296,0 9.605,-4.308 9.605,-9.605 z"
     id="path10"
     sodipodi:nodetypes="sssss"
     style="fill:none;stroke:#ffffff;stroke-opacity:1;stroke-width:0.5;stroke-dasharray:none" /><path
     d="m 20.665191,19.772107 c 0,-2.694864 2.127307,-4.89044 4.74118,-4.89044 2.613873,0 4.742438,2.194279 4.742438,4.89044 0,2.697458 -2.127308,4.89044 -4.742438,4.89044 -2.61513,0 -4.74118,-2.192982 -4.74118,-4.89044 z"
     style="fill:none;stroke:#ffffff;stroke-width:0.5;stroke-dasharray:none;stroke-opacity:1"
     id="path1-9" /><path
     d="m 25.407,26.826998 c 3.771823,0 6.839572,-3.164326 6.839572,-7.054891 0,-3.890565 -3.067749,-7.054891 -6.839572,-7.054891 -3.771823,0 -6.839572,3.164326 -6.839572,7.054891 0,3.890565 3.067749,7.054891 6.839572,7.054891 z"
     style="fill:none;stroke:#ffffff;stroke-width:0.5;stroke-dasharray:none;stroke-opacity:1"
     id="path1-98" /><path
     d="M 88.386,8.9081072 C 90.099,11.043107 100.5,38.927107 100.5,51.480107 c 0,13.293 -10.436131,14.357764 -10.541,14.363 -5.007,0.25 -6.709,-1.09 -11.484,-9.98 -5.301,-5.541 -8.307,-6.753 -9.646,-6.977 H 32.171 c -1.339,0.224 -4.346,1.436 -9.646,6.977 -4.9,7.14 -5.477,9.73 -11.484,9.98 -0.105908,0.0044 -10.541,-1.07 -10.541,-14.363 0,-12.551 10.4,-40.436 12.114,-42.5729998 0.422,-0.525 1.236,-1.13 2.441039,-1.787617 0,0 25.194961,-3.141383 35.257461,-3.141383 10.0625,0 35.67075,3.23675 35.67075,3.23675 1.18975,0.57725 1.98575,1.17225 2.40275,1.69325 z"
     id="path12"
     sodipodi:nodetypes="cssccccssccscc"
     style="fill:none;fill-opacity:1;stroke:#ffffff;stroke-opacity:1;stroke-width:0.5;stroke-dasharray:none" /><path
     style="fill:none;fill-opacity:1;stroke:#ffffff;stroke-opacity:1;stroke-width:0.5;stroke-dasharray:none"
     d="m 17.912504,5.7166602 1.414214,-4.463612 c 0,0 5.347495,-0.53033003 6.275573,-0.48613603 0.928077,0.04419 1.635184,1.67937903 1.635184,1.67937903"
     id="path17" /><path
     d="m 14.333117,7.5834512 c 0.333,-0.205 8.203,-5.009 14.136,-5.075 l 0.208,-10e-4 c 2.714,0 4.909,1.90425 5.824,2.50625"
     style="fill:none;fill-opacity:1;stroke:#ffffff;stroke-opacity:1;stroke-width:0.5;stroke-dasharray:none"
     id="path1-0"
     sodipodi:nodetypes="cccc" /><path
     style="fill:none;fill-opacity:1;stroke:#ffffff;stroke-opacity:1;stroke-width:0.5;stroke-dasharray:none"
     d="M 82.985879,5.4529502 81.571665,0.98933817 c 0,0 -5.347495,-0.53033 -6.275573,-0.486136 -0.928077,0.04419 -1.635184,1.67937903 -1.635184,1.67937903"
     id="path17-4" /><path
     d="m 65.541056,4.9529102 c 0.914,-0.602 3.7975,-2.6625 6.5125,-2.6625 l 0.208,10e-4 c 5.933,0.067 13.803,4.87 14.136,5.075"
     style="fill:none;fill-opacity:1;stroke:#ffffff;stroke-opacity:1;stroke-width:0.5;stroke-dasharray:none"
     id="path1-02"
     sodipodi:nodetypes="cccc" /><path
     d="m 39.8875,28.824107 c 0,-0.271 -0.251,-0.522 -2.069,-0.522 -1.875,0 -2.134,0.251 -2.134,0.522 v 4.212 h -4.211 c -0.271,0 -0.522,0.251 -0.522,2.07 0,1.874 0.251,2.133 0.522,2.133 h 4.211 v 4.211 c 0,0.271 0.251,0.521 2.07,0.521 1.875,0 2.133,-0.251 2.133,-0.521 v -4.211 h 4.211 c 0.271,0 0.522,-0.251 0.522,-2.07 0,-1.874 -0.251,-2.133 -0.522,-2.133 h -4.211 z"
     id="path1"
     sodipodi:nodetypes="ssscssscssscssscs"
     style="fill:none;stroke:#ffffff;stroke-opacity:1;stroke-width:0.5;stroke-dasharray:none" /><text
     xml:space="preserve"
     style="font-size:4.52788px;fill:#ffffff;fill-opacity:1;stroke:none;stroke-width:0.5;stroke-opacity:1;stroke-dasharray:none"
     x="70.650719"
     y="27.963001"
     id="text17"
     transform="scale(1.0509989,0.95147578)"><tspan
       sodipodi:role="line"
       id="tspan17"
       x="70.650719"
       y="27.963001"
       style="stroke:none;stroke-width:0.5;stroke-opacity:1;fill:#ffffff;fill-opacity:1;stroke-dasharray:none">A</tspan></text></svg>
